<svg width="20" height="19" viewBox="0 0 20 19" fill="none" xmlns="http://www.w3.org/2000/svg">
<g clip-path="url(#clip0_1496_1092)">
<path fill-rule="evenodd" clip-rule="evenodd" d="M19.2828 9.58217C19.2828 4.45507 14.9657 0.297852 9.64141 0.297852C4.31711 0.297852 0 4.45507 0 9.58217C0 14.2161 3.52514 18.0571 8.13494 18.7542V12.2668H5.68628V9.58217H8.13494V7.53672C8.13494 5.21025 9.5747 3.92412 11.7767 3.92412C12.8317 3.92412 13.9353 4.10567 13.9353 4.10567V6.39069H12.7189C11.5219 6.39069 11.1475 7.10608 11.1475 7.84136V9.58217H13.8212L13.3942 12.2668H11.1479V18.7551C15.7577 18.0583 19.2828 14.2173 19.2828 9.58217Z" fill="white"/>
</g>
<defs>
<clipPath id="clip0_1496_1092">
<rect width="20" height="19" fill="white"/>
</clipPath>
</defs>
</svg>
