<svg width="20" height="20" viewBox="0 0 20 20" fill="none" xmlns="http://www.w3.org/2000/svg">
<g clip-path="url(#clip0_1496_1083)">
<path d="M13.6585 1.62868C14.7231 1.63191 15.7431 2.06199 16.4958 2.82501C17.2486 3.58803 17.6729 4.62198 17.6761 5.70104V13.8449C17.6729 14.924 17.2486 15.9579 16.4958 16.7209C15.7431 17.484 14.7231 17.914 13.6585 17.9173H5.6243C4.55976 17.914 3.53973 17.484 2.78698 16.7209C2.03423 15.9579 1.60994 14.924 1.60676 13.8449V5.70104C1.60994 4.62198 2.03423 3.58803 2.78698 2.82501C3.53973 2.06199 4.55976 1.63191 5.6243 1.62868H13.6585ZM13.6585 0H5.6243C2.53087 0 0 2.5654 0 5.70104V13.8449C0 16.9805 2.53087 19.5459 5.6243 19.5459H13.6585C16.752 19.5459 19.2828 16.9805 19.2828 13.8449V5.70104C19.2828 2.5654 16.752 0 13.6585 0Z" fill="white"/>
<path d="M14.8638 5.70142C14.6254 5.70142 14.3924 5.62977 14.1942 5.49554C13.996 5.36131 13.8416 5.17052 13.7504 4.9473C13.6591 4.72407 13.6353 4.47845 13.6818 4.24148C13.7283 4.0045 13.8431 3.78682 14.0116 3.61598C14.1802 3.44514 14.3949 3.32878 14.6287 3.28165C14.8625 3.23452 15.1048 3.25871 15.325 3.35117C15.5452 3.44362 15.7334 3.6002 15.8659 3.8011C15.9983 4.00199 16.069 4.23818 16.069 4.4798C16.0693 4.64032 16.0384 4.79933 15.9779 4.9477C15.9175 5.09607 15.8287 5.23088 15.7167 5.34438C15.6048 5.45789 15.4718 5.54787 15.3254 5.60913C15.179 5.6704 15.0222 5.70176 14.8638 5.70142ZM9.64151 6.51554C10.2772 6.51554 10.8986 6.70661 11.4271 7.06458C11.9556 7.42255 12.3676 7.93135 12.6108 8.52665C12.8541 9.12193 12.9177 9.77696 12.7937 10.4089C12.6697 11.0409 12.3636 11.6213 11.9141 12.077C11.4646 12.5326 10.892 12.8429 10.2685 12.9686C9.64507 13.0943 8.99886 13.0297 8.41158 12.7832C7.82431 12.5366 7.32236 12.119 6.96921 11.5833C6.61606 11.0475 6.42756 10.4177 6.42756 9.77335C6.42847 8.9096 6.76738 8.08151 7.36991 7.47075C7.97245 6.85999 8.7894 6.51647 9.64151 6.51554ZM9.64151 4.88686C8.68806 4.88686 7.75603 5.17345 6.96327 5.71038C6.17051 6.24732 5.55263 7.01048 5.18776 7.90337C4.82289 8.79626 4.72742 9.77877 4.91343 10.7267C5.09944 11.6746 5.55857 12.5452 6.23275 13.2286C6.90694 13.912 7.76591 14.3774 8.70104 14.566C9.63616 14.7545 10.6054 14.6577 11.4863 14.2878C12.3672 13.9181 13.1201 13.2917 13.6498 12.4882C14.1795 11.6846 14.4622 10.7398 14.4622 9.77335C14.4622 8.47737 13.9543 7.23448 13.0503 6.31808C12.1462 5.40169 10.92 4.88686 9.64151 4.88686Z" fill="white"/>
</g>
<defs>
<clipPath id="clip0_1496_1083">
<rect width="20" height="20" fill="white"/>
</clipPath>
</defs>
</svg>
