<svg width="20" height="20" viewBox="0 0 20 20" fill="none" xmlns="http://www.w3.org/2000/svg">
<g clip-path="url(#clip0_1496_1088)">
<path d="M17.7234 0.986865C17.4634 0.998338 17.2211 1.07408 17.0078 1.1603C16.808 1.24067 16.0446 1.56809 14.8422 2.08374C13.6387 2.59984 12.0452 3.28399 10.3453 4.01499C6.94557 5.47699 3.12337 7.1227 1.16562 7.96499C1.09201 7.99665 0.835137 8.07871 0.5625 8.29155C0.289863 8.50439 0 8.94543 0 9.43687C0 9.83314 0.188854 10.2268 0.426563 10.4619C0.664271 10.6969 0.915798 10.813 1.13125 10.9009C1.91298 11.2199 4.33748 12.2121 4.79531 12.3994C4.95644 12.893 5.83399 15.5774 6.0375 16.2353C6.17165 16.6695 6.29936 16.9414 6.46563 17.1572C6.54876 17.2651 6.64539 17.3596 6.7625 17.4337C6.80931 17.4634 6.86063 17.4862 6.9125 17.5072L6.91563 17.5087C6.92758 17.5135 6.93788 17.5217 6.95 17.5259C6.97287 17.5339 6.98816 17.5349 7.01875 17.5416C7.14061 17.5809 7.26364 17.6056 7.37344 17.6056C7.84157 17.6056 8.12813 17.3478 8.12813 17.3478L8.14531 17.3353L10.5531 15.2525L13.4734 18.015C13.5146 18.0731 13.898 18.5994 14.7438 18.5994C15.2459 18.5994 15.6443 18.3474 15.9 18.0791C16.1557 17.8107 16.3151 17.5288 16.3828 17.1744V17.1728C16.4462 16.8379 19.1375 3.02124 19.1375 3.02124L19.1328 3.03999C19.2116 2.68038 19.2322 2.34548 19.1453 2.01499C19.0584 1.6845 18.8293 1.36808 18.5453 1.1978C18.2613 1.02757 17.9835 0.975392 17.7234 0.986865ZM17.5734 2.65874C17.5696 2.68209 17.5763 2.67035 17.5703 2.6978L17.5688 2.70718L17.5672 2.71655C17.5672 2.71655 14.9092 16.3565 14.8109 16.8759C14.8181 16.8367 14.7853 16.9147 14.7516 16.9619C14.7039 16.929 14.6062 16.8869 14.6062 16.8869L14.5906 16.8697L10.6016 13.0962L7.78125 15.5337L8.62031 12.1744C8.62031 12.1744 13.8653 6.74505 14.1813 6.42905C14.4357 6.17625 14.4891 6.08813 14.4891 6.00093C14.4891 5.88413 14.4282 5.79937 14.2922 5.79937C14.1698 5.79937 14.0052 5.91837 13.9172 5.97436C12.7707 6.7052 7.73746 9.63868 5.48125 10.9509C5.1227 10.8042 2.63173 9.78454 1.7875 9.43999C1.79389 9.43719 1.79179 9.43818 1.79844 9.4353C3.75669 8.59279 7.5773 6.9471 10.9766 5.4853C12.6762 4.7544 14.2709 4.06973 15.4734 3.55405C16.6574 3.04631 17.4801 2.69688 17.5734 2.65874Z" fill="white"/>
</g>
<defs>
<clipPath id="clip0_1496_1088">
<rect width="20" height="19" fill="white" transform="translate(0 0.297852)"/>
</clipPath>
</defs>
</svg>
