<svg width="21" height="18" viewBox="0 0 21 18" fill="none" xmlns="http://www.w3.org/2000/svg">
<path d="M10 1.67285C7.424 1.67285 4.08053 2.29256 4.08053 2.29256L4.07212 2.30179C2.89887 2.48195 2 3.44993 2 4.62713V8.17227V8.17343V11.7174V11.7186C2.00114 12.2808 2.211 12.8242 2.59188 13.2512C2.97275 13.6783 3.49971 13.961 4.07812 14.0485L4.08053 14.052C4.08053 14.052 7.424 14.6729 10 14.6729C12.576 14.6729 15.9195 14.052 15.9195 14.052L15.9207 14.0508C16.4997 13.9635 17.0273 13.6805 17.4084 13.253C17.7896 12.8255 17.9994 12.2814 18 11.7186V11.7174V8.17343V8.17227V4.62713C17.9991 4.06471 17.7894 3.52102 17.4085 3.09375C17.0276 2.66647 16.5005 2.38362 15.9219 2.29602L15.9195 2.29256C15.9195 2.29256 12.576 1.67285 10 1.67285ZM8.15385 5.45341L13.0769 8.17227L8.15385 10.8911V5.45341Z" fill="white"/>
</svg>
